<svg width="50" height="54" viewBox="0 0 50 54" fill="none" xmlns="http://www.w3.org/2000/svg">
<path d="M2.11816 40.4885V40.9181C3.13288 40.9971 4.16342 41.0376 5.20758 41.0376C12.9483 41.0376 19.9656 38.8095 25.0528 35.1964C30.14 31.5835 33.3103 26.5737 33.3103 21.0188C33.3103 15.4639 30.14 10.4542 25.0528 6.84122C19.9656 3.2281 12.9483 1 5.20758 1C4.16342 1 3.13288 1.04052 2.11816 1.11949V1.54912C9.05682 2.08918 15.2163 4.44693 19.6364 7.92697C24.0561 11.4068 26.7271 15.9991 26.7271 21.0188C26.7271 26.0385 24.0561 30.6308 19.6364 34.1106C15.2163 37.5907 9.05682 39.9484 2.11816 40.4885Z" fill="#CDC3A0" stroke="#CDC3A0"/>
<path d="M44.1409 21.3661C44.1409 27.0948 39.3811 31.8799 33.0906 32.8028C26.8006 31.8799 22.0403 27.0948 22.0403 21.3661C22.0403 15.6375 26.8006 10.8523 33.0906 9.92945C39.3811 10.8523 44.1409 15.6375 44.1409 21.3661ZM33.0906 9.49381C32.3712 9.39136 31.6329 9.33813 30.881 9.33813C23.3389 9.33813 17.1816 14.7011 17.1816 21.3661C17.1816 28.0312 23.3389 33.3941 30.881 33.3941C31.6329 33.3941 32.3712 33.3409 33.0906 33.2384C33.8104 33.3409 34.5483 33.3941 35.3006 33.3941C42.8427 33.3941 49 28.0312 49 21.3661C49 14.7011 42.8427 9.33813 35.3006 9.33813C34.5483 9.33813 33.8104 9.39136 33.0906 9.49381Z" fill="#CDC3A0" stroke="#CDC3A0"/>
<path d="M0.939453 39.1302V3.27046C2.78029 6.42018 3.75574 9.99511 3.75574 13.6434V28.853C3.75574 32.471 2.77946 36.0151 0.939453 39.1302Z" fill="#CDC3A0" stroke="#CDC3A0"/>
<mask id="path-4-inside-1_117_1004" fill="white">
<path d="M3.81629 13.6434V28.853H4.69521V13.6434H3.81629ZM0.878923 40.8222V1.563H0V40.8222H0.878923ZM3.81629 28.853C3.81629 33.0429 2.5124 37.1331 0.0782214 40.5766L0.800702 41.0677C3.3364 37.4799 4.69521 33.2184 4.69521 28.853H3.81629ZM0.0769071 1.80668C2.51284 5.2918 3.81629 9.41817 3.81629 13.6434H4.69521C4.69521 9.24418 3.33815 4.94794 0.802016 1.31934L0.0769071 1.80668Z"/>
</mask>
<path d="M3.81629 13.6434V28.853H4.69521V13.6434H3.81629ZM0.878923 40.8222V1.563H0V40.8222H0.878923ZM3.81629 28.853C3.81629 33.0429 2.5124 37.1331 0.0782214 40.5766L0.800702 41.0677C3.3364 37.4799 4.69521 33.2184 4.69521 28.853H3.81629ZM0.0769071 1.80668C2.51284 5.2918 3.81629 9.41817 3.81629 13.6434H4.69521C4.69521 9.24418 3.33815 4.94794 0.802016 1.31934L0.0769071 1.80668Z" fill="#CDC3A0"/>
<path d="M3.81629 13.6434V12.6434H2.81629V13.6434H3.81629ZM3.81629 28.853H2.81629V29.853H3.81629V28.853ZM4.69521 28.853V29.853H5.69521V28.853H4.69521ZM4.69521 13.6434H5.69521V12.6434H4.69521V13.6434ZM0.878923 40.8222V41.8222H1.87892V40.8222H0.878923ZM0.878923 1.563H1.87892V0.563004H0.878923V1.563ZM0 1.563V0.563004H-1V1.563H0ZM0 40.8222H-1V41.8222H0V40.8222ZM3.81629 28.853V27.853H2.81629V28.853H3.81629ZM0.0782214 40.5766L-0.738362 39.9994L-1.32628 40.8311L-0.483919 41.4037L0.0782214 40.5766ZM0.800702 41.0677L0.238562 41.8947L1.05062 42.4467L1.61733 41.6448L0.800702 41.0677ZM4.69521 28.853H5.69521V27.853H4.69521V28.853ZM0.0769071 1.80668L-0.480906 0.976709L-1.32618 1.54481L-0.742728 2.37956L0.0769071 1.80668ZM3.81629 13.6434H2.81629V14.6434H3.81629V13.6434ZM4.69521 13.6434V14.6434H5.69521V13.6434H4.69521ZM0.802016 1.31934L1.62166 0.746463L1.05915 -0.0583515L0.244203 0.48937L0.802016 1.31934ZM2.81629 13.6434V28.853H4.81629V13.6434H2.81629ZM3.81629 29.853H4.69521V27.853H3.81629V29.853ZM5.69521 28.853V13.6434H3.69521V28.853H5.69521ZM4.69521 12.6434H3.81629V14.6434H4.69521V12.6434ZM1.87892 40.8222V1.563H-0.121077V40.8222H1.87892ZM0.878923 0.563004H0V2.563H0.878923V0.563004ZM-1 1.563V40.8222H1V1.563H-1ZM0 41.8222H0.878923V39.8222H0V41.8222ZM2.81629 28.853C2.81629 32.8348 1.57727 36.7235 -0.738362 39.9994L0.894805 41.1538C3.44753 37.5426 4.81629 33.2511 4.81629 28.853H2.81629ZM-0.483919 41.4037L0.238562 41.8947L1.36284 40.2406L0.640361 39.7496L-0.483919 41.4037ZM1.61733 41.6448C4.2715 37.8895 5.69521 33.4266 5.69521 28.853H3.69521C3.69521 33.0103 2.40129 37.0704 -0.0159271 40.4905L1.61733 41.6448ZM4.69521 27.853H3.81629V29.853H4.69521V27.853ZM-0.742728 2.37956C1.57659 5.69784 2.81629 9.62446 2.81629 13.6434H4.81629C4.81629 9.21188 3.4491 4.88577 0.896543 1.23379L-0.742728 2.37956ZM3.81629 14.6434H4.69521V12.6434H3.81629V14.6434ZM5.69521 13.6434C5.69521 9.0379 4.27441 4.54192 1.62166 0.746463L-0.0176282 1.89221C2.40189 5.35396 3.69521 9.45046 3.69521 13.6434H5.69521ZM0.244203 0.48937L-0.480906 0.976709L0.634721 2.63664L1.35983 2.1493L0.244203 0.48937Z" fill="#CDC3A0" mask="url(#path-4-inside-1_117_1004)"/>
<path d="M19.042 52.9116L19.4696 53C20.4403 50.0395 21.0134 46.3641 21.0134 42.3855C21.0134 37.5187 20.1556 33.1024 18.7603 29.8948C18.0624 28.2913 17.2261 26.9799 16.2865 26.0662C15.3457 25.1517 14.2892 24.625 13.1607 24.625C12.0321 24.625 10.9757 25.1517 10.0352 26.0662C9.0952 26.9799 8.2589 28.2913 7.56147 29.8948C6.16618 33.1024 5.30835 37.5187 5.30835 42.3855C5.30835 46.3641 5.88141 50.0395 6.85174 53L7.27978 52.9116C7.11059 51.3377 7.02005 49.6706 7.02005 47.9445C7.02005 43.1174 7.72979 38.7566 8.87019 35.6103C9.44105 34.0362 10.1152 32.7777 10.853 31.9168C11.5922 31.0548 12.3727 30.6148 13.1607 30.6148C13.9491 30.6148 14.7295 31.0548 15.4683 31.9168C16.2066 32.7777 16.8807 34.0362 17.4516 35.6103C18.592 38.7566 19.3017 43.1174 19.3017 47.9445C19.3017 49.6706 19.2112 51.3377 19.042 52.9116Z" fill="#CDC3A0" stroke="#CDC3A0"/>
</svg>
